<svg width="800" height="200" viewBox="0 0 800 200" xmlns="http://www.w3.org/2000/svg">
  <rect width="800" height="200" fill="none"/>
  
  <path d="M40,110 C45,100 55,105 60,95 C65,85 60,70 70,65 C80,60 90,65 100,60 C110,55 120,40 130,45 C140,50 150,65 145,80 C140,95 130,110 120,125 C110,140 100,160 85,170 C70,180 50,175 40,160 C30,145 35,120 40,110 Z" fill="#43A047" />

  <path d="M115,30 C150,30 180,45 180,80 C180,120 150,165 115,180 C80,165 50,120 50,80 C50,45 80,30 115,30 Z" fill="white" stroke="#1A3761" stroke-width="8"/>

  <path d="M115,105 Q115,145 145,145 Q85,145 85,145 Q85,115 115,105 Z" fill="#EF6C00" />
  <circle cx="115" cy="85" r="15" fill="#EF6C00" />
  <line x1="115" y1="60" x2="115" y2="50" stroke="#EF6C00" stroke-width="4" stroke-linecap="round"/>
  <line x1="95" y1="65" x2="85" y2="60" stroke="#EF6C00" stroke-width="4" stroke-linecap="round"/>
  <line x1="135" y1="65" x2="145" y2="60" stroke="#EF6C00" stroke-width="4" stroke-linecap="round"/>
  <line x1="85" y1="85" x2="75" y2="85" stroke="#EF6C00" stroke-width="4" stroke-linecap="round"/>
  <line x1="145" y1="85" x2="155" y2="85" stroke="#EF6C00" stroke-width="4" stroke-linecap="round"/>

  <text x="210" y="145" font-family="Arial, sans-serif" font-weight="bold" font-size="95" fill="#43A047" letter-spacing="-5">전북</text>
  
  <text x="390" y="145" font-family="Arial, sans-serif" font-weight="bold" font-size="95" fill="#1A3761" letter-spacing="-5">안전누리</text>
</svg>